<svg width="1047" height="1109" xmlns="http://www.w3.org/2000/svg" xmlns:xlink="http://www.w3.org/1999/xlink" overflow="hidden"><defs><clipPath id="clip0"><rect x="1151" y="91" width="1047" height="1109"/></clipPath><clipPath id="clip1"><rect x="1152" y="92" width="1044" height="1106"/></clipPath><clipPath id="clip2"><rect x="1212" y="142" width="926" height="392"/></clipPath><clipPath id="clip3"><rect x="1152" y="92" width="1044" height="1106"/></clipPath><clipPath id="clip4"><rect x="1212" y="142" width="926" height="392"/></clipPath><clipPath id="clip5"><rect x="1152" y="92" width="1044" height="1106"/></clipPath><clipPath id="clip6"><rect x="1212" y="142" width="926" height="392"/></clipPath><clipPath id="clip7"><rect x="1152" y="92" width="1044" height="1106"/></clipPath><clipPath id="clip8"><rect x="1212" y="142" width="926" height="392"/></clipPath><clipPath id="clip9"><rect x="1152" y="92" width="1044" height="1106"/></clipPath><clipPath id="clip10"><rect x="1212" y="142" width="926" height="392"/></clipPath><clipPath id="clip11"><rect x="1152" y="92" width="1044" height="1106"/></clipPath><clipPath id="clip12"><rect x="1152" y="92" width="1044" height="1106"/></clipPath><clipPath id="clip13"><rect x="1152" y="92" width="1044" height="1106"/></clipPath><clipPath id="clip14"><rect x="1152" y="92" width="1044" height="1106"/></clipPath><clipPath id="clip15"><rect x="1152" y="92" width="1044" height="1106"/></clipPath><clipPath id="clip16"><rect x="1152" y="92" width="1044" height="1106"/></clipPath><clipPath id="clip17"><rect x="1152" y="92" width="1044" height="1106"/></clipPath><clipPath id="clip18"><rect x="1152" y="92" width="1044" height="1106"/></clipPath><clipPath id="clip19"><rect x="1152" y="92" width="1044" height="1106"/></clipPath><clipPath id="clip20"><rect x="1152" y="92" width="1044" height="1106"/></clipPath><clipPath id="clip21"><rect x="1152" y="92" width="1044" height="1106"/></clipPath><clipPath id="clip22"><rect x="1152" y="92" width="1044" height="1106"/></clipPath><clipPath id="clip23"><rect x="1152" y="92" width="1044" height="1106"/></clipPath><clipPath id="clip24"><rect x="1152" y="92" width="1044" height="1106"/></clipPath><clipPath id="clip25"><rect x="1152" y="92" width="1044" height="1106"/></clipPath><clipPath id="clip26"><rect x="1152" y="92" width="1044" height="1106"/></clipPath><clipPath id="clip27"><rect x="1152" y="92" width="1044" height="1106"/></clipPath><clipPath id="clip28"><rect x="1152" y="92" width="1044" height="1106"/></clipPath><clipPath id="clip29"><rect x="1152" y="92" width="1044" height="1106"/></clipPath><clipPath id="clip30"><rect x="1152" y="92" width="1044" height="1106"/></clipPath><clipPath id="clip31"><rect x="1152" y="92" width="1044" height="1106"/></clipPath><clipPath id="clip32"><rect x="1152" y="92" width="1044" height="1106"/></clipPath><clipPath id="clip33"><rect x="1152" y="92" width="1044" height="1106"/></clipPath><clipPath id="clip34"><rect x="1152" y="92" width="1044" height="1106"/></clipPath></defs><g clip-path="url(#clip0)" transform="translate(-1151 -91)"><rect x="1152" y="92.0001" width="1044" height="1106" fill="#FFFFFF"/><g clip-path="url(#clip1)"><path d="M1212.5 531.5 2135.5 531.5" stroke="#BFBFBF" stroke-width="3.4375" stroke-linejoin="round" stroke-miterlimit="10" fill="none" fill-rule="evenodd"/></g><g clip-path="url(#clip2)"><path d="M1510.55 207.5 1489.5 207.5 1532.5 207.5" stroke="#A80084" stroke-width="6.875" stroke-linecap="round" stroke-linejoin="round" stroke-miterlimit="10" fill="none"/></g><g clip-path="url(#clip3)"><path d="M1521.62 207.595C1521.62 213.67 1516.69 218.595 1510.62 218.595 1504.54 218.595 1499.62 213.67 1499.62 207.595 1499.62 201.52 1504.54 196.596 1510.62 196.596 1516.69 196.596 1521.62 201.52 1521.62 207.595Z" stroke="#A80084" stroke-width="3.4375" stroke-linejoin="round" stroke-miterlimit="10" fill="#A80084"/></g><g clip-path="url(#clip4)"><path d="M1610.55 272.5 1573.5 272.5 1647.5 272.5" stroke="#E69800" stroke-width="6.875" stroke-linecap="round" stroke-linejoin="round" stroke-miterlimit="10" fill="none"/></g><g clip-path="url(#clip5)"><path d="M1621.62 272.595C1621.62 278.67 1616.69 283.595 1610.62 283.595 1604.54 283.595 1599.62 278.67 1599.62 272.595 1599.62 266.52 1604.54 261.596 1610.62 261.596 1616.69 261.596 1621.62 266.52 1621.62 272.595Z" stroke="#E69800" stroke-width="3.4375" stroke-linejoin="round" stroke-miterlimit="10" fill="#E69800"/></g><g clip-path="url(#clip6)"><path d="M1716.56 336.5 1567.5 336.5 1865.5 336.5" stroke="#FFEBAF" stroke-width="6.875" stroke-linecap="round" stroke-linejoin="round" stroke-miterlimit="10" fill="none"/></g><g clip-path="url(#clip7)"><path d="M1727.62 336.595C1727.62 342.67 1722.69 347.595 1716.62 347.595 1710.54 347.595 1705.62 342.67 1705.62 336.595 1705.62 330.52 1710.54 325.596 1716.62 325.596 1722.69 325.596 1727.62 330.52 1727.62 336.595Z" stroke="#FFEBAF" stroke-width="3.4375" stroke-linejoin="round" stroke-miterlimit="10" fill="#FFEBAF"/></g><g clip-path="url(#clip8)"><path d="M1838.56 401.5 1697.5 401.5 1980.5 401.5" stroke="#FF73DF" stroke-width="6.875" stroke-linecap="round" stroke-linejoin="round" stroke-miterlimit="10" fill="none"/></g><g clip-path="url(#clip9)"><path d="M1849.61 401.595C1849.61 407.67 1844.69 412.595 1838.62 412.595 1832.54 412.595 1827.62 407.67 1827.62 401.595 1827.62 395.52 1832.54 390.596 1838.62 390.596 1844.69 390.596 1849.61 395.52 1849.61 401.595Z" stroke="#FF73DF" stroke-width="3.4375" stroke-linejoin="round" stroke-miterlimit="10" fill="#FF73DF"/></g><g clip-path="url(#clip10)"><path d="M1838.56 466.5 1697.5 466.5 1980.5 466.5" stroke="#C2C2C2" stroke-width="6.875" stroke-linecap="round" stroke-linejoin="round" stroke-miterlimit="10" fill="none"/></g><g clip-path="url(#clip11)"><path d="M1849.61 466.595C1849.61 472.67 1844.69 477.595 1838.62 477.595 1832.54 477.595 1827.62 472.67 1827.62 466.595 1827.62 460.52 1832.54 455.596 1838.62 455.596 1844.69 455.596 1849.61 460.52 1849.61 466.595Z" stroke="#C2C2C2" stroke-width="3.4375" stroke-linejoin="round" stroke-miterlimit="10" fill="#C2C2C2"/></g><g clip-path="url(#clip12)"><text fill="#595959" font-family="Calibri,Calibri_MSFontService,sans-serif" font-weight="400" font-size="41" transform="matrix(1 0 0 1 1202.53 596)">0</text></g><g clip-path="url(#clip13)"><text fill="#595959" font-family="Calibri,Calibri_MSFontService,sans-serif" font-weight="400" font-size="41" transform="matrix(1 0 0 1 1386.99 596)">1</text></g><g clip-path="url(#clip14)"><text fill="#595959" font-family="Calibri,Calibri_MSFontService,sans-serif" font-weight="400" font-size="41" transform="matrix(1 0 0 1 1571.45 596)">2</text></g><g clip-path="url(#clip15)"><text fill="#595959" font-family="Calibri,Calibri_MSFontService,sans-serif" font-weight="400" font-size="41" transform="matrix(1 0 0 1 1755.92 596)">3</text></g><g clip-path="url(#clip16)"><text fill="#595959" font-family="Calibri,Calibri_MSFontService,sans-serif" font-weight="400" font-size="41" transform="matrix(1 0 0 1 1940.38 596)">4</text></g><g clip-path="url(#clip17)"><text fill="#595959" font-family="Calibri,Calibri_MSFontService,sans-serif" font-weight="400" font-size="41" transform="matrix(1 0 0 1 2124.84 596)">5</text></g><g clip-path="url(#clip18)"><text fill="#595959" font-family="Calibri,Calibri_MSFontService,sans-serif" font-weight="400" font-size="46" transform="matrix(1 0 0 1 1352.32 666)">Teacher Attrition/Mobility per 100 </text></g><g clip-path="url(#clip19)"><text fill="#595959" font-family="Calibri,Calibri_MSFontService,sans-serif" font-weight="400" font-size="46" transform="matrix(1 0 0 1 1591.75 722)">Students</text></g><g clip-path="url(#clip20)"><path d="M1411.5 829.5 1499.5 829.5" stroke="#A80084" stroke-width="6.875" stroke-linecap="round" stroke-linejoin="round" stroke-miterlimit="10" fill="none" fill-rule="evenodd"/></g><g clip-path="url(#clip21)"><path d="M1466 829C1466 835.075 1461.07 839.999 1455 839.999 1448.92 839.999 1444 835.075 1444 829 1444 822.925 1448.92 818 1455 818 1461.07 818 1466 822.925 1466 829Z" stroke="#A80084" stroke-width="3.4375" stroke-linejoin="round" stroke-miterlimit="10" fill="#A80084"/></g><g clip-path="url(#clip22)"><text fill="#595959" font-family="Calibri,Calibri_MSFontService,sans-serif" font-weight="400" font-size="41" transform="matrix(1 0 0 1 1509.12 841)">Performance Plan</text></g><g clip-path="url(#clip23)"><path d="M1411.5 906.5 1499.5 906.5" stroke="#E69800" stroke-width="6.875" stroke-linecap="round" stroke-linejoin="round" stroke-miterlimit="10" fill="none" fill-rule="evenodd"/></g><g clip-path="url(#clip24)"><path d="M1466 906C1466 912.075 1461.07 916.999 1455 916.999 1448.92 916.999 1444 912.075 1444 906 1444 899.925 1448.92 895 1455 895 1461.07 895 1466 899.925 1466 906Z" stroke="#E69800" stroke-width="3.4375" stroke-linejoin="round" stroke-miterlimit="10" fill="#E69800"/></g><g clip-path="url(#clip25)"><text fill="#595959" font-family="Calibri,Calibri_MSFontService,sans-serif" font-weight="400" font-size="41" transform="matrix(1 0 0 1 1509.12 918)">Improvement Plan</text></g><g clip-path="url(#clip26)"><path d="M1411.5 984.5 1499.5 984.5" stroke="#FFEBAF" stroke-width="6.875" stroke-linecap="round" stroke-linejoin="round" stroke-miterlimit="10" fill="none" fill-rule="evenodd"/></g><g clip-path="url(#clip27)"><path d="M1466 984C1466 990.075 1461.07 994.999 1455 994.999 1448.92 994.999 1444 990.075 1444 984 1444 977.925 1448.92 973 1455 973 1461.07 973 1466 977.925 1466 984Z" stroke="#FFEBAF" stroke-width="3.4375" stroke-linejoin="round" stroke-miterlimit="10" fill="#FFEBAF"/></g><g clip-path="url(#clip28)"><text fill="#595959" font-family="Calibri,Calibri_MSFontService,sans-serif" font-weight="400" font-size="41" transform="matrix(1 0 0 1 1509.12 996)">Priority Improvement Plan</text></g><g clip-path="url(#clip29)"><path d="M1411.5 1061.5 1499.5 1061.5" stroke="#FF73DF" stroke-width="6.875" stroke-linecap="round" stroke-linejoin="round" stroke-miterlimit="10" fill="none" fill-rule="evenodd"/></g><g clip-path="url(#clip30)"><path d="M1466 1061C1466 1067.07 1461.07 1072 1455 1072 1448.92 1072 1444 1067.07 1444 1061 1444 1054.92 1448.92 1050 1455 1050 1461.07 1050 1466 1054.92 1466 1061Z" stroke="#FF73DF" stroke-width="3.4375" stroke-linejoin="round" stroke-miterlimit="10" fill="#FF73DF"/></g><g clip-path="url(#clip31)"><text fill="#595959" font-family="Calibri,Calibri_MSFontService,sans-serif" font-weight="400" font-size="41" transform="matrix(1 0 0 1 1509.12 1073)">Turnaround Plan</text></g><g clip-path="url(#clip32)"><path d="M1411.5 1138.5 1499.5 1138.5" stroke="#C2C2C2" stroke-width="6.875" stroke-linecap="round" stroke-linejoin="round" stroke-miterlimit="10" fill="none" fill-rule="evenodd"/></g><g clip-path="url(#clip33)"><path d="M1466 1138C1466 1144.07 1461.07 1149 1455 1149 1448.92 1149 1444 1144.07 1444 1138 1444 1131.92 1448.92 1127 1455 1127 1461.07 1127 1466 1131.92 1466 1138Z" stroke="#C2C2C2" stroke-width="3.4375" stroke-linejoin="round" stroke-miterlimit="10" fill="#C2C2C2"/></g><g clip-path="url(#clip34)"><text fill="#595959" font-family="Calibri,Calibri_MSFontService,sans-serif" font-weight="400" font-size="41" transform="matrix(1 0 0 1 1509.12 1150)">Insufficient or No Data</text></g><rect x="1152.5" y="92.5" width="1044" height="1106" stroke="#D9D9D9" stroke-width="3.4375" stroke-linejoin="round" stroke-miterlimit="10" fill="none"/></g></svg>