<svg width="1139" height="1109" xmlns="http://www.w3.org/2000/svg" xmlns:xlink="http://www.w3.org/1999/xlink" overflow="hidden"><defs><clipPath id="clip0"><rect x="1151" y="91" width="1139" height="1109"/></clipPath><clipPath id="clip1"><rect x="1152" y="92" width="1136" height="1106"/></clipPath><clipPath id="clip2"><rect x="1212" y="142" width="1019" height="545"/></clipPath><clipPath id="clip3"><rect x="1152" y="92" width="1136" height="1106"/></clipPath><clipPath id="clip4"><rect x="1212" y="142" width="1019" height="545"/></clipPath><clipPath id="clip5"><rect x="1152" y="92" width="1136" height="1106"/></clipPath><clipPath id="clip6"><rect x="1212" y="142" width="1019" height="545"/></clipPath><clipPath id="clip7"><rect x="1152" y="92" width="1136" height="1106"/></clipPath><clipPath id="clip8"><rect x="1212" y="142" width="1019" height="545"/></clipPath><clipPath id="clip9"><rect x="1152" y="92" width="1136" height="1106"/></clipPath><clipPath id="clip10"><rect x="1212" y="142" width="1019" height="545"/></clipPath><clipPath id="clip11"><rect x="1152" y="92" width="1136" height="1106"/></clipPath><clipPath id="clip12"><rect x="1152" y="92" width="1136" height="1106"/></clipPath><clipPath id="clip13"><rect x="1152" y="92" width="1136" height="1106"/></clipPath><clipPath id="clip14"><rect x="1152" y="92" width="1136" height="1106"/></clipPath><clipPath id="clip15"><rect x="1152" y="92" width="1136" height="1106"/></clipPath><clipPath id="clip16"><rect x="1152" y="92" width="1136" height="1106"/></clipPath><clipPath id="clip17"><rect x="1152" y="92" width="1136" height="1106"/></clipPath><clipPath id="clip18"><rect x="1152" y="92" width="1136" height="1106"/></clipPath><clipPath id="clip19"><rect x="1152" y="92" width="1136" height="1106"/></clipPath><clipPath id="clip20"><rect x="1152" y="92" width="1136" height="1106"/></clipPath><clipPath id="clip21"><rect x="1152" y="92" width="1136" height="1106"/></clipPath><clipPath id="clip22"><rect x="1152" y="92" width="1136" height="1106"/></clipPath><clipPath id="clip23"><rect x="1152" y="92" width="1136" height="1106"/></clipPath><clipPath id="clip24"><rect x="1152" y="92" width="1136" height="1106"/></clipPath><clipPath id="clip25"><rect x="1152" y="92" width="1136" height="1106"/></clipPath><clipPath id="clip26"><rect x="1152" y="92" width="1136" height="1106"/></clipPath><clipPath id="clip27"><rect x="1152" y="92" width="1136" height="1106"/></clipPath><clipPath id="clip28"><rect x="1152" y="92" width="1136" height="1106"/></clipPath><clipPath id="clip29"><rect x="1152" y="92" width="1136" height="1106"/></clipPath><clipPath id="clip30"><rect x="1152" y="92" width="1136" height="1106"/></clipPath><clipPath id="clip31"><rect x="1152" y="92" width="1136" height="1106"/></clipPath><clipPath id="clip32"><rect x="1152" y="92" width="1136" height="1106"/></clipPath></defs><g clip-path="url(#clip0)" transform="translate(-1151 -91)"><rect x="1152" y="92.0001" width="1136" height="1106" fill="#FFFFFF"/><g clip-path="url(#clip1)"><path d="M1212.5 684.5 2227.5 684.5" stroke="#BFBFBF" stroke-width="3.4375" stroke-linejoin="round" stroke-miterlimit="10" fill="none" fill-rule="evenodd"/></g><g clip-path="url(#clip2)"><path d="M1540.55 232.5 1516.5 232.5 1564.5 232.5" stroke="#A80084" stroke-width="6.875" stroke-linecap="round" stroke-linejoin="round" stroke-miterlimit="10" fill="none"/></g><g clip-path="url(#clip3)"><path d="M1551.62 232.595C1551.62 238.67 1546.69 243.595 1540.62 243.595 1534.54 243.595 1529.62 238.67 1529.62 232.595 1529.62 226.52 1534.54 221.596 1540.62 221.596 1546.69 221.596 1551.62 226.52 1551.62 232.595Z" stroke="#A80084" stroke-width="3.4375" stroke-linejoin="round" stroke-miterlimit="10" fill="#A80084"/></g><g clip-path="url(#clip4)"><path d="M1650.55 323.5 1609.5 323.5 1690.5 323.5" stroke="#E69800" stroke-width="6.875" stroke-linecap="round" stroke-linejoin="round" stroke-miterlimit="10" fill="none"/></g><g clip-path="url(#clip5)"><path d="M1661.62 323.595C1661.62 329.67 1656.69 334.595 1650.62 334.595 1644.54 334.595 1639.62 329.67 1639.62 323.595 1639.62 317.52 1644.54 312.596 1650.62 312.596 1656.69 312.596 1661.62 317.52 1661.62 323.595Z" stroke="#E69800" stroke-width="3.4375" stroke-linejoin="round" stroke-miterlimit="10" fill="#E69800"/></g><g clip-path="url(#clip6)"><path d="M1766.56 413.5 1602.5 413.5 1931.5 413.5" stroke="#FFEBAF" stroke-width="6.875" stroke-linecap="round" stroke-linejoin="round" stroke-miterlimit="10" fill="none"/></g><g clip-path="url(#clip7)"><path d="M1777.62 413.595C1777.62 419.67 1772.69 424.595 1766.62 424.595 1760.54 424.595 1755.62 419.67 1755.62 413.595 1755.62 407.52 1760.54 402.596 1766.62 402.596 1772.69 402.596 1777.62 407.52 1777.62 413.595Z" stroke="#FFEBAF" stroke-width="3.4375" stroke-linejoin="round" stroke-miterlimit="10" fill="#FFEBAF"/></g><g clip-path="url(#clip8)"><path d="M1901.56 503.5 1745.5 503.5 2056.5 503.5" stroke="#FF73DF" stroke-width="6.875" stroke-linecap="round" stroke-linejoin="round" stroke-miterlimit="10" fill="none"/></g><g clip-path="url(#clip9)"><path d="M1912.62 503.595C1912.62 509.67 1907.69 514.595 1901.62 514.595 1895.54 514.595 1890.62 509.67 1890.62 503.595 1890.62 497.52 1895.54 492.596 1901.62 492.596 1907.69 492.596 1912.62 497.52 1912.62 503.595Z" stroke="#FF73DF" stroke-width="3.4375" stroke-linejoin="round" stroke-miterlimit="10" fill="#FF73DF"/></g><g clip-path="url(#clip10)"><path d="M1901.56 594.5 1745.5 594.5 2056.5 594.5" stroke="#C2C2C2" stroke-width="6.875" stroke-linecap="round" stroke-linejoin="round" stroke-miterlimit="10" fill="none"/></g><g clip-path="url(#clip11)"><path d="M1912.62 594.595C1912.62 600.67 1907.69 605.595 1901.62 605.595 1895.54 605.595 1890.62 600.67 1890.62 594.595 1890.62 588.521 1895.54 583.596 1901.62 583.596 1907.69 583.596 1912.62 588.521 1912.62 594.595Z" stroke="#C2C2C2" stroke-width="3.4375" stroke-linejoin="round" stroke-miterlimit="10" fill="#C2C2C2"/></g><g clip-path="url(#clip12)"><text fill="#595959" font-family="Calibri,Calibri_MSFontService,sans-serif" font-weight="400" font-size="41" transform="matrix(1 0 0 1 1202.53 750)">0</text></g><g clip-path="url(#clip13)"><text fill="#595959" font-family="Calibri,Calibri_MSFontService,sans-serif" font-weight="400" font-size="41" transform="matrix(1 0 0 1 1405.45 750)">1</text></g><g clip-path="url(#clip14)"><text fill="#595959" font-family="Calibri,Calibri_MSFontService,sans-serif" font-weight="400" font-size="41" transform="matrix(1 0 0 1 1608.38 750)">2</text></g><g clip-path="url(#clip15)"><text fill="#595959" font-family="Calibri,Calibri_MSFontService,sans-serif" font-weight="400" font-size="41" transform="matrix(1 0 0 1 1811.3 750)">3</text></g><g clip-path="url(#clip16)"><text fill="#595959" font-family="Calibri,Calibri_MSFontService,sans-serif" font-weight="400" font-size="41" transform="matrix(1 0 0 1 2014.22 750)">4</text></g><g clip-path="url(#clip17)"><text fill="#595959" font-family="Calibri,Calibri_MSFontService,sans-serif" font-weight="400" font-size="41" transform="matrix(1 0 0 1 2217.14 750)">5</text></g><g clip-path="url(#clip18)"><path d="M1457.5 829.5 1545.5 829.5" stroke="#A80084" stroke-width="6.875" stroke-linecap="round" stroke-linejoin="round" stroke-miterlimit="10" fill="none" fill-rule="evenodd"/></g><g clip-path="url(#clip19)"><path d="M1512 829C1512 835.075 1507.08 839.999 1501 839.999 1494.93 839.999 1490 835.075 1490 829 1490 822.925 1494.93 818 1501 818 1507.08 818 1512 822.925 1512 829Z" stroke="#A80084" stroke-width="3.4375" stroke-linejoin="round" stroke-miterlimit="10" fill="#A80084"/></g><g clip-path="url(#clip20)"><text fill="#595959" font-family="Calibri,Calibri_MSFontService,sans-serif" font-weight="400" font-size="41" transform="matrix(1 0 0 1 1555.28 841)">Performance Plan</text></g><g clip-path="url(#clip21)"><path d="M1457.5 906.5 1545.5 906.5" stroke="#E69800" stroke-width="6.875" stroke-linecap="round" stroke-linejoin="round" stroke-miterlimit="10" fill="none" fill-rule="evenodd"/></g><g clip-path="url(#clip22)"><path d="M1512 906C1512 912.075 1507.08 916.999 1501 916.999 1494.93 916.999 1490 912.075 1490 906 1490 899.925 1494.93 895 1501 895 1507.08 895 1512 899.925 1512 906Z" stroke="#E69800" stroke-width="3.4375" stroke-linejoin="round" stroke-miterlimit="10" fill="#E69800"/></g><g clip-path="url(#clip23)"><text fill="#595959" font-family="Calibri,Calibri_MSFontService,sans-serif" font-weight="400" font-size="41" transform="matrix(1 0 0 1 1555.28 918)">Improvement Plan</text></g><g clip-path="url(#clip24)"><path d="M1457.5 984.5 1545.5 984.5" stroke="#FFEBAF" stroke-width="6.875" stroke-linecap="round" stroke-linejoin="round" stroke-miterlimit="10" fill="none" fill-rule="evenodd"/></g><g clip-path="url(#clip25)"><path d="M1512 984C1512 990.075 1507.08 994.999 1501 994.999 1494.93 994.999 1490 990.075 1490 984 1490 977.925 1494.93 973 1501 973 1507.08 973 1512 977.925 1512 984Z" stroke="#FFEBAF" stroke-width="3.4375" stroke-linejoin="round" stroke-miterlimit="10" fill="#FFEBAF"/></g><g clip-path="url(#clip26)"><text fill="#595959" font-family="Calibri,Calibri_MSFontService,sans-serif" font-weight="400" font-size="41" transform="matrix(1 0 0 1 1555.28 996)">Priority Improvement Plan</text></g><g clip-path="url(#clip27)"><path d="M1457.5 1061.5 1545.5 1061.5" stroke="#FF73DF" stroke-width="6.875" stroke-linecap="round" stroke-linejoin="round" stroke-miterlimit="10" fill="none" fill-rule="evenodd"/></g><g clip-path="url(#clip28)"><path d="M1512 1061C1512 1067.07 1507.08 1072 1501 1072 1494.93 1072 1490 1067.07 1490 1061 1490 1054.92 1494.93 1050 1501 1050 1507.08 1050 1512 1054.92 1512 1061Z" stroke="#FF73DF" stroke-width="3.4375" stroke-linejoin="round" stroke-miterlimit="10" fill="#FF73DF"/></g><g clip-path="url(#clip29)"><text fill="#595959" font-family="Calibri,Calibri_MSFontService,sans-serif" font-weight="400" font-size="41" transform="matrix(1 0 0 1 1555.28 1073)">Turnaround Plan</text></g><g clip-path="url(#clip30)"><path d="M1457.5 1138.5 1545.5 1138.5" stroke="#C2C2C2" stroke-width="6.875" stroke-linecap="round" stroke-linejoin="round" stroke-miterlimit="10" fill="none" fill-rule="evenodd"/></g><g clip-path="url(#clip31)"><path d="M1512 1138C1512 1144.07 1507.08 1149 1501 1149 1494.93 1149 1490 1144.07 1490 1138 1490 1131.92 1494.93 1127 1501 1127 1507.08 1127 1512 1131.92 1512 1138Z" stroke="#C2C2C2" stroke-width="3.4375" stroke-linejoin="round" stroke-miterlimit="10" fill="#C2C2C2"/></g><g clip-path="url(#clip32)"><text fill="#595959" font-family="Calibri,Calibri_MSFontService,sans-serif" font-weight="400" font-size="41" transform="matrix(1 0 0 1 1555.28 1150)">Insufficient or No Data</text></g><rect x="1152.5" y="92.5" width="1136" height="1106" stroke="#D9D9D9" stroke-width="3.4375" stroke-linejoin="round" stroke-miterlimit="10" fill="none"/></g></svg>