<svg width="1391" height="917" xmlns="http://www.w3.org/2000/svg" xmlns:xlink="http://www.w3.org/1999/xlink" overflow="hidden"><defs><clipPath id="clip0"><rect x="1151" y="91" width="1391" height="917"/></clipPath><clipPath id="clip1"><rect x="1152" y="92" width="1388" height="913"/></clipPath><clipPath id="clip2"><rect x="1212" y="142" width="795" height="663"/></clipPath><clipPath id="clip3"><rect x="1152" y="92" width="1388" height="913"/></clipPath><clipPath id="clip4"><rect x="1212" y="142" width="795" height="663"/></clipPath><clipPath id="clip5"><rect x="1152" y="92" width="1388" height="913"/></clipPath><clipPath id="clip6"><rect x="1212" y="142" width="795" height="663"/></clipPath><clipPath id="clip7"><rect x="1152" y="92" width="1388" height="913"/></clipPath><clipPath id="clip8"><rect x="1212" y="142" width="795" height="663"/></clipPath><clipPath id="clip9"><rect x="1152" y="92" width="1388" height="913"/></clipPath><clipPath id="clip10"><rect x="1212" y="142" width="795" height="663"/></clipPath><clipPath id="clip11"><rect x="1152" y="92" width="1388" height="913"/></clipPath><clipPath id="clip12"><rect x="1152" y="92" width="1388" height="913"/></clipPath><clipPath id="clip13"><rect x="1152" y="92" width="1388" height="913"/></clipPath><clipPath id="clip14"><rect x="1152" y="92" width="1388" height="913"/></clipPath><clipPath id="clip15"><rect x="1152" y="92" width="1388" height="913"/></clipPath><clipPath id="clip16"><rect x="1152" y="92" width="1388" height="913"/></clipPath><clipPath id="clip17"><rect x="1152" y="92" width="1388" height="913"/></clipPath><clipPath id="clip18"><rect x="1152" y="92" width="1388" height="913"/></clipPath><clipPath id="clip19"><rect x="1152" y="92" width="1388" height="913"/></clipPath><clipPath id="clip20"><rect x="1152" y="92" width="1388" height="913"/></clipPath><clipPath id="clip21"><rect x="1152" y="92" width="1388" height="913"/></clipPath><clipPath id="clip22"><rect x="1152" y="92" width="1388" height="913"/></clipPath><clipPath id="clip23"><rect x="1152" y="92" width="1388" height="913"/></clipPath><clipPath id="clip24"><rect x="1152" y="92" width="1388" height="913"/></clipPath><clipPath id="clip25"><rect x="1152" y="92" width="1388" height="913"/></clipPath><clipPath id="clip26"><rect x="1152" y="92" width="1388" height="913"/></clipPath><clipPath id="clip27"><rect x="1152" y="92" width="1388" height="913"/></clipPath><clipPath id="clip28"><rect x="1152" y="92" width="1388" height="913"/></clipPath><clipPath id="clip29"><rect x="1152" y="92" width="1388" height="913"/></clipPath><clipPath id="clip30"><rect x="1152" y="92" width="1388" height="913"/></clipPath><clipPath id="clip31"><rect x="1152" y="92" width="1388" height="913"/></clipPath><clipPath id="clip32"><rect x="1152" y="92" width="1388" height="913"/></clipPath><clipPath id="clip33"><rect x="1152" y="92" width="1388" height="913"/></clipPath><clipPath id="clip34"><rect x="1152" y="92" width="1388" height="913"/></clipPath><clipPath id="clip35"><rect x="1152" y="92" width="1388" height="913"/></clipPath></defs><g clip-path="url(#clip0)" transform="translate(-1151 -91)"><rect x="1152" y="92.0001" width="1388" height="914" fill="#FFFFFF"/><g clip-path="url(#clip1)"><path d="M1212.5 802.5 2003.5 802.501" stroke="#BFBFBF" stroke-width="3.4375" stroke-linejoin="round" stroke-miterlimit="10" fill="none" fill-rule="evenodd"/></g><g clip-path="url(#clip2)"><path d="M1468.55 252.5 1449.5 252.5 1486.5 252.5" stroke="#A80084" stroke-width="6.875" stroke-linecap="round" stroke-linejoin="round" stroke-miterlimit="10" fill="none"/></g><g clip-path="url(#clip3)"><path d="M1479.62 252.595C1479.62 258.67 1474.69 263.595 1468.62 263.595 1462.54 263.595 1457.62 258.67 1457.62 252.595 1457.62 246.52 1462.54 241.596 1468.62 241.596 1474.69 241.596 1479.62 246.52 1479.62 252.595Z" stroke="#A80084" stroke-width="3.4375" stroke-linejoin="round" stroke-miterlimit="10" fill="#A80084"/></g><g clip-path="url(#clip4)"><path d="M1553.55 362.5 1522.5 362.5 1585.5 362.5" stroke="#E69800" stroke-width="6.875" stroke-linecap="round" stroke-linejoin="round" stroke-miterlimit="10" fill="none"/></g><g clip-path="url(#clip5)"><path d="M1564.62 362.595C1564.62 368.67 1559.69 373.595 1553.62 373.595 1547.54 373.595 1542.62 368.67 1542.62 362.595 1542.62 356.521 1547.54 351.596 1553.62 351.596 1559.69 351.596 1564.62 356.521 1564.62 362.595Z" stroke="#E69800" stroke-width="3.4375" stroke-linejoin="round" stroke-miterlimit="10" fill="#E69800"/></g><g clip-path="url(#clip6)"><path d="M1644.55 472.5 1516.5 472.5 1772.5 472.5" stroke="#FFEBAF" stroke-width="6.875" stroke-linecap="round" stroke-linejoin="round" stroke-miterlimit="10" fill="none"/></g><g clip-path="url(#clip7)"><path d="M1655.62 472.595C1655.62 478.67 1650.69 483.595 1644.62 483.595 1638.54 483.595 1633.62 478.67 1633.62 472.595 1633.62 466.521 1638.54 461.596 1644.62 461.596 1650.69 461.596 1655.62 466.521 1655.62 472.595Z" stroke="#FFEBAF" stroke-width="3.4375" stroke-linejoin="round" stroke-miterlimit="10" fill="#FFEBAF"/></g><g clip-path="url(#clip8)"><path d="M1749.56 582.5 1628.5 582.5 1870.5 582.5" stroke="#FF73DF" stroke-width="6.875" stroke-linecap="round" stroke-linejoin="round" stroke-miterlimit="10" fill="none"/></g><g clip-path="url(#clip9)"><path d="M1760.62 582.595C1760.62 588.67 1755.69 593.595 1749.62 593.595 1743.54 593.595 1738.62 588.67 1738.62 582.595 1738.62 576.521 1743.54 571.596 1749.62 571.596 1755.69 571.596 1760.62 576.521 1760.62 582.595Z" stroke="#FF73DF" stroke-width="3.4375" stroke-linejoin="round" stroke-miterlimit="10" fill="#FF73DF"/></g><g clip-path="url(#clip10)"><path d="M1749.56 692.5 1628.5 692.5 1870.5 692.5" stroke="#C2C2C2" stroke-width="6.875" stroke-linecap="round" stroke-linejoin="round" stroke-miterlimit="10" fill="none"/></g><g clip-path="url(#clip11)"><path d="M1760.62 692.595C1760.62 698.67 1755.69 703.595 1749.62 703.595 1743.54 703.595 1738.62 698.67 1738.62 692.595 1738.62 686.521 1743.54 681.596 1749.62 681.596 1755.69 681.596 1760.62 686.521 1760.62 692.595Z" stroke="#C2C2C2" stroke-width="3.4375" stroke-linejoin="round" stroke-miterlimit="10" fill="#C2C2C2"/></g><g clip-path="url(#clip12)"><text fill="#595959" font-family="Calibri,Calibri_MSFontService,sans-serif" font-weight="400" font-size="41" transform="matrix(1 0 0 1 1202.53 867)">0</text></g><g clip-path="url(#clip13)"><text fill="#595959" font-family="Calibri,Calibri_MSFontService,sans-serif" font-weight="400" font-size="41" transform="matrix(1 0 0 1 1360.67 867)">1</text></g><g clip-path="url(#clip14)"><text fill="#595959" font-family="Calibri,Calibri_MSFontService,sans-serif" font-weight="400" font-size="41" transform="matrix(1 0 0 1 1518.8 867)">2</text></g><g clip-path="url(#clip15)"><text fill="#595959" font-family="Calibri,Calibri_MSFontService,sans-serif" font-weight="400" font-size="41" transform="matrix(1 0 0 1 1676.93 867)">3</text></g><g clip-path="url(#clip16)"><text fill="#595959" font-family="Calibri,Calibri_MSFontService,sans-serif" font-weight="400" font-size="41" transform="matrix(1 0 0 1 1835.07 867)">4</text></g><g clip-path="url(#clip17)"><text fill="#595959" font-family="Calibri,Calibri_MSFontService,sans-serif" font-weight="400" font-size="41" transform="matrix(1 0 0 1 1993.2 867)">5</text></g><g clip-path="url(#clip18)"><text fill="#595959" font-family="Calibri,Calibri_MSFontService,sans-serif" font-weight="400" font-size="46" transform="matrix(1 0 0 1 1226.73 937)">Teacher Attrition/Mobility per 100 Students</text></g><g clip-path="url(#clip19)"><path d="M2096.5 254.5 2184.5 254.5" stroke="#A80084" stroke-width="6.875" stroke-linecap="round" stroke-linejoin="round" stroke-miterlimit="10" fill="none" fill-rule="evenodd"/></g><g clip-path="url(#clip20)"><path d="M2151 253.999C2151 260.075 2146.07 264.999 2140 264.999 2133.93 264.999 2129 260.075 2129 253.999 2129 247.924 2133.93 243 2140 243 2146.07 243 2151 247.924 2151 253.999Z" stroke="#A80084" stroke-width="3.4375" stroke-linejoin="round" stroke-miterlimit="10" fill="#A80084"/></g><g clip-path="url(#clip21)"><text fill="#595959" font-family="Calibri,Calibri_MSFontService,sans-serif" font-weight="400" font-size="41" transform="matrix(1 0 0 1 2194.2 266)">Performance Plan</text></g><g clip-path="url(#clip22)"><path d="M2096.5 366.5 2184.5 366.5" stroke="#E69800" stroke-width="6.875" stroke-linecap="round" stroke-linejoin="round" stroke-miterlimit="10" fill="none" fill-rule="evenodd"/></g><g clip-path="url(#clip23)"><path d="M2151 366C2151 372.075 2146.07 376.999 2140 376.999 2133.93 376.999 2129 372.075 2129 366 2129 359.925 2133.93 355 2140 355 2146.07 355 2151 359.925 2151 366Z" stroke="#E69800" stroke-width="3.4375" stroke-linejoin="round" stroke-miterlimit="10" fill="#E69800"/></g><g clip-path="url(#clip24)"><text fill="#595959" font-family="Calibri,Calibri_MSFontService,sans-serif" font-weight="400" font-size="41" transform="matrix(1 0 0 1 2194.2 378)">Improvement Plan</text></g><g clip-path="url(#clip25)"><path d="M2096.5 477.5 2184.5 477.5" stroke="#FFEBAF" stroke-width="6.875" stroke-linecap="round" stroke-linejoin="round" stroke-miterlimit="10" fill="none" fill-rule="evenodd"/></g><g clip-path="url(#clip26)"><path d="M2151 477C2151 483.075 2146.07 487.999 2140 487.999 2133.93 487.999 2129 483.075 2129 477 2129 470.925 2133.93 466 2140 466 2146.07 466 2151 470.925 2151 477Z" stroke="#FFEBAF" stroke-width="3.4375" stroke-linejoin="round" stroke-miterlimit="10" fill="#FFEBAF"/></g><g clip-path="url(#clip27)"><text fill="#595959" font-family="Calibri,Calibri_MSFontService,sans-serif" font-weight="400" font-size="41" transform="matrix(1 0 0 1 2194.2 489)">Priority</text></g><g clip-path="url(#clip28)"><text fill="#595959" font-family="Calibri,Calibri_MSFontService,sans-serif" font-weight="400" font-size="41" transform="matrix(1 0 0 1 2194.2 540)">Improvement Plan</text></g><g clip-path="url(#clip29)"><path d="M2096.5 589.5 2184.5 589.5" stroke="#FF73DF" stroke-width="6.875" stroke-linecap="round" stroke-linejoin="round" stroke-miterlimit="10" fill="none" fill-rule="evenodd"/></g><g clip-path="url(#clip30)"><path d="M2151 589C2151 595.075 2146.07 599.999 2140 599.999 2133.93 599.999 2129 595.075 2129 589 2129 582.925 2133.93 578 2140 578 2146.07 578 2151 582.925 2151 589Z" stroke="#FF73DF" stroke-width="3.4375" stroke-linejoin="round" stroke-miterlimit="10" fill="#FF73DF"/></g><g clip-path="url(#clip31)"><text fill="#595959" font-family="Calibri,Calibri_MSFontService,sans-serif" font-weight="400" font-size="41" transform="matrix(1 0 0 1 2194.2 601)">Turnaround Plan</text></g><g clip-path="url(#clip32)"><path d="M2096.5 701.5 2184.5 701.5" stroke="#C2C2C2" stroke-width="6.875" stroke-linecap="round" stroke-linejoin="round" stroke-miterlimit="10" fill="none" fill-rule="evenodd"/></g><g clip-path="url(#clip33)"><path d="M2151 701C2151 707.075 2146.07 712 2140 712 2133.93 712 2129 707.075 2129 701 2129 694.925 2133.93 690 2140 690 2146.07 690 2151 694.925 2151 701Z" stroke="#C2C2C2" stroke-width="3.4375" stroke-linejoin="round" stroke-miterlimit="10" fill="#C2C2C2"/></g><g clip-path="url(#clip34)"><text fill="#595959" font-family="Calibri,Calibri_MSFontService,sans-serif" font-weight="400" font-size="41" transform="matrix(1 0 0 1 2194.2 713)">Insufficient or No</text></g><g clip-path="url(#clip35)"><text fill="#595959" font-family="Calibri,Calibri_MSFontService,sans-serif" font-weight="400" font-size="41" transform="matrix(1 0 0 1 2194.2 763)">Data</text></g><rect x="1152.5" y="92.5" width="1388" height="914" stroke="#D9D9D9" stroke-width="3.4375" stroke-linejoin="round" stroke-miterlimit="10" fill="none"/></g></svg>