<svg width="1144" height="1228" xmlns="http://www.w3.org/2000/svg" xmlns:xlink="http://www.w3.org/1999/xlink" overflow="hidden"><defs><clipPath id="clip0"><rect x="1490" y="28" width="1144" height="1228"/></clipPath><clipPath id="clip1"><rect x="1491" y="28" width="1140" height="1226"/></clipPath><clipPath id="clip2"><rect x="1547" y="56" width="1022" height="633"/></clipPath><clipPath id="clip3"><rect x="1491" y="28" width="1140" height="1226"/></clipPath><clipPath id="clip4"><rect x="1547" y="56" width="1022" height="633"/></clipPath><clipPath id="clip5"><rect x="1491" y="28" width="1140" height="1226"/></clipPath><clipPath id="clip6"><rect x="1547" y="56" width="1022" height="633"/></clipPath><clipPath id="clip7"><rect x="1491" y="28" width="1140" height="1226"/></clipPath><clipPath id="clip8"><rect x="1547" y="56" width="1022" height="633"/></clipPath><clipPath id="clip9"><rect x="1491" y="28" width="1140" height="1226"/></clipPath><clipPath id="clip10"><rect x="1547" y="56" width="1022" height="633"/></clipPath><clipPath id="clip11"><rect x="1491" y="28" width="1140" height="1226"/></clipPath><clipPath id="clip12"><rect x="1547" y="56" width="1022" height="633"/></clipPath><clipPath id="clip13"><rect x="1491" y="28" width="1140" height="1226"/></clipPath><clipPath id="clip14"><rect x="1491" y="28" width="1140" height="1226"/></clipPath><clipPath id="clip15"><rect x="1491" y="28" width="1140" height="1226"/></clipPath><clipPath id="clip16"><rect x="1491" y="28" width="1140" height="1226"/></clipPath><clipPath id="clip17"><rect x="1491" y="28" width="1140" height="1226"/></clipPath><clipPath id="clip18"><rect x="1491" y="28" width="1140" height="1226"/></clipPath><clipPath id="clip19"><rect x="1491" y="28" width="1140" height="1226"/></clipPath><clipPath id="clip20"><rect x="1491" y="28" width="1140" height="1226"/></clipPath><clipPath id="clip21"><rect x="1491" y="28" width="1140" height="1226"/></clipPath><clipPath id="clip22"><rect x="1491" y="28" width="1140" height="1226"/></clipPath><clipPath id="clip23"><rect x="1491" y="28" width="1140" height="1226"/></clipPath><clipPath id="clip24"><rect x="1491" y="28" width="1140" height="1226"/></clipPath><clipPath id="clip25"><rect x="1491" y="28" width="1140" height="1226"/></clipPath><clipPath id="clip26"><rect x="1491" y="28" width="1140" height="1226"/></clipPath><clipPath id="clip27"><rect x="1491" y="28" width="1140" height="1226"/></clipPath><clipPath id="clip28"><rect x="1491" y="28" width="1140" height="1226"/></clipPath><clipPath id="clip29"><rect x="1491" y="28" width="1140" height="1226"/></clipPath><clipPath id="clip30"><rect x="1491" y="28" width="1140" height="1226"/></clipPath><clipPath id="clip31"><rect x="1491" y="28" width="1140" height="1226"/></clipPath><clipPath id="clip32"><rect x="1491" y="28" width="1140" height="1226"/></clipPath><clipPath id="clip33"><rect x="1491" y="28" width="1140" height="1226"/></clipPath><clipPath id="clip34"><rect x="1491" y="28" width="1140" height="1226"/></clipPath><clipPath id="clip35"><rect x="1491" y="28" width="1140" height="1226"/></clipPath><clipPath id="clip36"><rect x="1491" y="28" width="1140" height="1226"/></clipPath><clipPath id="clip37"><rect x="1491" y="28" width="1140" height="1226"/></clipPath><clipPath id="clip38"><rect x="1491" y="28" width="1140" height="1226"/></clipPath><clipPath id="clip39"><rect x="1491" y="28" width="1140" height="1226"/></clipPath><clipPath id="clip40"><rect x="1491" y="28" width="1140" height="1226"/></clipPath><clipPath id="clip41"><rect x="1491" y="28" width="1140" height="1226"/></clipPath><clipPath id="clip42"><rect x="1491" y="28" width="1141" height="1227"/></clipPath><clipPath id="clip43"><rect x="914" y="849" width="2288" height="87"/></clipPath><clipPath id="clip44"><rect x="1491" y="28" width="1141" height="1227"/></clipPath><clipPath id="clip45"><rect x="914" y="849" width="2288" height="87"/></clipPath><clipPath id="clip46"><rect x="1491" y="28" width="1141" height="1227"/></clipPath><clipPath id="clip47"><rect x="914" y="849" width="2288" height="87"/></clipPath><clipPath id="clip48"><rect x="1491" y="28" width="1141" height="1227"/></clipPath></defs><g clip-path="url(#clip0)" transform="translate(-1490 -28)"><rect x="1491" y="28.9999" width="1141" height="1225" fill="#FFFFFF"/><g clip-path="url(#clip1)"><path d="M1547.5 686.5 2565.5 686.5" stroke="#BFBFBF" stroke-width="3.4375" stroke-linejoin="round" stroke-miterlimit="10" fill="none" fill-rule="evenodd"/></g><g clip-path="url(#clip2)"><path d="M2035.57 146.5 1971.5 146.5 2099.5 146.5" stroke="#385723" stroke-width="6.875" stroke-linecap="round" stroke-linejoin="round" stroke-miterlimit="10" fill="none"/></g><g clip-path="url(#clip3)"><path d="M2046.9 146.134C2046.9 152.209 2041.98 157.134 2035.9 157.134 2029.83 157.134 2024.9 152.209 2024.9 146.134 2024.9 140.059 2029.83 135.134 2035.9 135.134 2041.98 135.134 2046.9 140.059 2046.9 146.134Z" stroke="#385723" stroke-width="3.4375" stroke-linejoin="round" stroke-miterlimit="10" fill="#385723"/></g><g clip-path="url(#clip4)"><path d="M2144.57 236.5 2015.5 236.5 2273.5 236.5" stroke="#548235" stroke-width="6.875" stroke-linecap="round" stroke-linejoin="round" stroke-miterlimit="10" fill="none"/></g><g clip-path="url(#clip5)"><path d="M2155.9 236.134C2155.9 242.209 2150.98 247.134 2144.9 247.134 2138.83 247.134 2133.9 242.209 2133.9 236.134 2133.9 230.059 2138.83 225.134 2144.9 225.134 2150.98 225.134 2155.9 230.059 2155.9 236.134Z" stroke="#548235" stroke-width="3.4375" stroke-linejoin="round" stroke-miterlimit="10" fill="#548235"/></g><g clip-path="url(#clip6)"><path d="M2106.57 326.5 2053.5 326.5 2160.5 326.5" stroke="#A9D18E" stroke-width="6.875" stroke-linecap="round" stroke-linejoin="round" stroke-miterlimit="10" fill="none"/></g><g clip-path="url(#clip7)"><path d="M2117.9 326.134C2117.9 332.209 2112.98 337.134 2106.9 337.134 2100.83 337.134 2095.9 332.209 2095.9 326.134 2095.9 320.059 2100.83 315.134 2106.9 315.134 2112.98 315.134 2117.9 320.059 2117.9 326.134Z" stroke="#A9D18E" stroke-width="3.4375" stroke-linejoin="round" stroke-miterlimit="10" fill="#A9D18E"/></g><g clip-path="url(#clip8)"><path d="M2209.57 416.5 2064.5 416.5 2354.5 416.5" stroke="#C5E0B4" stroke-width="6.875" stroke-linecap="round" stroke-linejoin="round" stroke-miterlimit="10" fill="none"/></g><g clip-path="url(#clip9)"><path d="M2220.9 416.134C2220.9 422.209 2215.98 427.134 2209.9 427.134 2203.83 427.134 2198.9 422.209 2198.9 416.134 2198.9 410.059 2203.83 405.135 2209.9 405.135 2215.98 405.135 2220.9 410.059 2220.9 416.134Z" stroke="#C5E0B4" stroke-width="3.4375" stroke-linejoin="round" stroke-miterlimit="10" fill="#C5E0B4"/></g><g clip-path="url(#clip10)"><path d="M2205.57 506.5 2104.5 506.5 2305.5 506.5" stroke="#D9D9D9" stroke-width="6.875" stroke-linecap="round" stroke-linejoin="round" stroke-miterlimit="10" fill="none"/></g><g clip-path="url(#clip11)"><path d="M2216.9 506.134C2216.9 512.209 2211.98 517.134 2205.9 517.134 2199.83 517.134 2194.9 512.209 2194.9 506.134 2194.9 500.059 2199.83 495.135 2205.9 495.135 2211.98 495.135 2216.9 500.059 2216.9 506.134Z" stroke="#0D0D0D" stroke-width="3.4375" stroke-linejoin="round" stroke-miterlimit="10" fill="#FFFFFF"/></g><g clip-path="url(#clip12)"><path d="M2249.57 596.5 2189.5 596.5 2310.5 596.5" stroke="#7F7F7F" stroke-width="6.875" stroke-linecap="round" stroke-linejoin="round" stroke-miterlimit="10" fill="none"/></g><g clip-path="url(#clip13)"><path d="M2260.9 596.134C2260.9 602.209 2255.98 607.134 2249.9 607.134 2243.83 607.134 2238.9 602.209 2238.9 596.134 2238.9 590.059 2243.83 585.134 2249.9 585.134 2255.98 585.134 2260.9 590.059 2260.9 596.134Z" stroke="#7F7F7F" stroke-width="3.4375" stroke-linejoin="round" stroke-miterlimit="10" fill="#7F7F7F"/></g><g clip-path="url(#clip14)"><text fill="#595959" font-family="Calibri,Calibri_MSFontService,sans-serif" font-weight="400" font-size="41" transform="matrix(1 0 0 1 1521.77 752)">0.0</text></g><g clip-path="url(#clip15)"><text fill="#595959" font-family="Calibri,Calibri_MSFontService,sans-serif" font-weight="400" font-size="41" transform="matrix(1 0 0 1 1691.45 752)">0.5</text></g><g clip-path="url(#clip16)"><text fill="#595959" font-family="Calibri,Calibri_MSFontService,sans-serif" font-weight="400" font-size="41" transform="matrix(1 0 0 1 1861.12 752)">1.0</text></g><g clip-path="url(#clip17)"><text fill="#595959" font-family="Calibri,Calibri_MSFontService,sans-serif" font-weight="400" font-size="41" transform="matrix(1 0 0 1 2030.8 752)">1.5</text></g><g clip-path="url(#clip18)"><text fill="#595959" font-family="Calibri,Calibri_MSFontService,sans-serif" font-weight="400" font-size="41" transform="matrix(1 0 0 1 2200.47 752)">2.0</text></g><g clip-path="url(#clip19)"><text fill="#595959" font-family="Calibri,Calibri_MSFontService,sans-serif" font-weight="400" font-size="41" transform="matrix(1 0 0 1 2370.15 752)">2.5</text></g><g clip-path="url(#clip20)"><text fill="#595959" font-family="Calibri,Calibri_MSFontService,sans-serif" font-weight="400" font-size="41" transform="matrix(1 0 0 1 2539.82 752)">3.0</text></g><g clip-path="url(#clip21)"><text fill="#595959" font-family="Calibri,Calibri_MSFontService,sans-serif" font-weight="400" font-size="46" transform="matrix(1 0 0 1 1642.79 808)">School</text></g><g clip-path="url(#clip22)"><text fill="#595959" font-family="Calibri,Calibri_MSFontService,sans-serif" font-weight="400" font-size="46" transform="matrix(1 0 0 1 1766.2 808)">-</text></g><g clip-path="url(#clip23)"><text fill="#595959" font-family="Calibri,Calibri_MSFontService,sans-serif" font-weight="400" font-size="46" transform="matrix(1 0 0 1 1780.23 808)">Level Teacher Mobility/Attrition Rate </text></g><g clip-path="url(#clip24)"><path d="M1920.5 957.5 2008.5 957.5" stroke="#385723" stroke-width="6.875" stroke-linecap="round" stroke-linejoin="round" stroke-miterlimit="10" fill="none" fill-rule="evenodd"/></g><g clip-path="url(#clip25)"><path d="M1975 957.499C1975 963.31 1970.08 968.021 1964 968.021 1957.93 968.021 1953 963.31 1953 957.499 1953 951.689 1957.93 946.978 1964 946.978 1970.08 946.978 1975 951.689 1975 957.499Z" stroke="#385723" stroke-width="3.4375" stroke-linejoin="round" stroke-miterlimit="10" fill="#385723"/></g><g clip-path="url(#clip26)"><text fill="#595959" font-family="Calibri,Calibri_MSFontService,sans-serif" font-weight="400" font-size="41" transform="matrix(1 0 0 1 2017.48 969)">  88.2 - 98.9</text></g><g clip-path="url(#clip27)"><path d="M1920.5 1010.5 2008.5 1010.5" stroke="#548235" stroke-width="6.875" stroke-linecap="round" stroke-linejoin="round" stroke-miterlimit="10" fill="none" fill-rule="evenodd"/></g><g clip-path="url(#clip28)"><path d="M1975 1010C1975 1016.07 1970.08 1021 1964 1021 1957.93 1021 1953 1016.07 1953 1010 1953 1003.92 1957.93 999 1964 999 1970.08 999 1975 1003.92 1975 1010Z" stroke="#548235" stroke-width="3.4375" stroke-linejoin="round" stroke-miterlimit="10" fill="#548235"/></g><g clip-path="url(#clip29)"><text fill="#595959" font-family="Calibri,Calibri_MSFontService,sans-serif" font-weight="400" font-size="41" transform="matrix(1 0 0 1 2017.48 1023)">  80.4 - 88.1</text></g><g clip-path="url(#clip30)"><path d="M1920.5 1064.5 2008.5 1064.5" stroke="#A9D18E" stroke-width="6.875" stroke-linecap="round" stroke-linejoin="round" stroke-miterlimit="10" fill="none" fill-rule="evenodd"/></g><g clip-path="url(#clip31)"><path d="M1975 1064C1975 1070.07 1970.08 1075 1964 1075 1957.93 1075 1953 1070.07 1953 1064 1953 1057.92 1957.93 1053 1964 1053 1970.08 1053 1975 1057.92 1975 1064Z" stroke="#A9D18E" stroke-width="3.4375" stroke-linejoin="round" stroke-miterlimit="10" fill="#A9D18E"/></g><g clip-path="url(#clip32)"><text fill="#595959" font-family="Calibri,Calibri_MSFontService,sans-serif" font-weight="400" font-size="41" transform="matrix(1 0 0 1 2017.48 1076)">  71.7 - 80.3</text></g><g clip-path="url(#clip33)"><path d="M1920.5 1118.5 2008.5 1118.5" stroke="#C5E0B4" stroke-width="6.875" stroke-linecap="round" stroke-linejoin="round" stroke-miterlimit="10" fill="none" fill-rule="evenodd"/></g><g clip-path="url(#clip34)"><path d="M1975 1118C1975 1124.07 1970.08 1129 1964 1129 1957.93 1129 1953 1124.07 1953 1118 1953 1111.92 1957.93 1107 1964 1107 1970.08 1107 1975 1111.92 1975 1118Z" stroke="#C5E0B4" stroke-width="3.4375" stroke-linejoin="round" stroke-miterlimit="10" fill="#C5E0B4"/></g><g clip-path="url(#clip35)"><text fill="#595959" font-family="Calibri,Calibri_MSFontService,sans-serif" font-weight="400" font-size="41" transform="matrix(1 0 0 1 2017.48 1130)">  59.6 - 71.6</text></g><g clip-path="url(#clip36)"><path d="M1920.5 1171.5 2008.5 1171.5" stroke="#D9D9D9" stroke-width="6.875" stroke-linecap="round" stroke-linejoin="round" stroke-miterlimit="10" fill="none" fill-rule="evenodd"/></g><g clip-path="url(#clip37)"><path d="M1975 1171C1975 1177.07 1970.08 1182 1964 1182 1957.93 1182 1953 1177.07 1953 1171 1953 1164.92 1957.93 1160 1964 1160 1970.08 1160 1975 1164.92 1975 1171Z" stroke="#0D0D0D" stroke-width="3.4375" stroke-linejoin="round" stroke-miterlimit="10" fill="#FFFFFF"/></g><g clip-path="url(#clip38)"><text fill="#595959" font-family="Calibri,Calibri_MSFontService,sans-serif" font-weight="400" font-size="41" transform="matrix(1 0 0 1 2036.13 1183)">≤59.5</text></g><g clip-path="url(#clip39)"><path d="M1920.5 1225.5 2008.5 1225.5" stroke="#7F7F7F" stroke-width="6.875" stroke-linecap="round" stroke-linejoin="round" stroke-miterlimit="10" fill="none" fill-rule="evenodd"/></g><g clip-path="url(#clip40)"><path d="M1975 1225C1975 1231.07 1970.08 1236 1964 1236 1957.93 1236 1953 1231.07 1953 1225 1953 1218.92 1957.93 1214 1964 1214 1970.08 1214 1975 1218.92 1975 1225Z" stroke="#7F7F7F" stroke-width="3.4375" stroke-linejoin="round" stroke-miterlimit="10" fill="#7F7F7F"/></g><g clip-path="url(#clip41)"><text fill="#595959" font-family="Calibri,Calibri_MSFontService,sans-serif" font-weight="400" font-size="41" transform="matrix(1 0 0 1 2017.48 1237)">Missing</text></g><rect x="1491.5" y="29.5001" width="1141" height="1225" stroke="#D9D9D9" stroke-width="3.4375" stroke-linejoin="round" stroke-miterlimit="10" fill="none"/><g clip-path="url(#clip42)"><g clip-path="url(#clip43)"><text fill="#767171" font-family="Calibri,Calibri_MSFontService,sans-serif" font-weight="400" font-size="46" transform="matrix(1 0 0 1 1894.69 912)">Overall</text></g></g><g clip-path="url(#clip44)"><g clip-path="url(#clip45)"><text fill="#767171" font-family="Calibri,Calibri_MSFontService,sans-serif" font-weight="400" font-size="48" transform="matrix(1 0 0 1 2038.38 912)">Score</text></g></g><g clip-path="url(#clip46)"><g clip-path="url(#clip47)"><text fill="#767171" font-family="Calibri,Calibri_MSFontService,sans-serif" font-weight="400" font-size="48" transform="matrix(1 0 0 1 2157.82 912)">(%)</text></g></g><g clip-path="url(#clip48)"><path d="M0 0 808.499 1.96073" stroke="#7F7F7F" stroke-width="2.29167" stroke-miterlimit="8" fill="none" fill-rule="evenodd" transform="matrix(1 0 0 -1 1648 847.961)"/></g></g></svg>