<svg width="1139" height="1109" xmlns="http://www.w3.org/2000/svg" xmlns:xlink="http://www.w3.org/1999/xlink" overflow="hidden"><defs><clipPath id="clip0"><rect x="1151" y="91" width="1139" height="1109"/></clipPath><clipPath id="clip1"><rect x="1152" y="92" width="1136" height="1106"/></clipPath><clipPath id="clip2"><rect x="1208" y="142" width="1018" height="623"/></clipPath><clipPath id="clip3"><rect x="1152" y="92" width="1136" height="1106"/></clipPath><clipPath id="clip4"><rect x="1208" y="142" width="1018" height="623"/></clipPath><clipPath id="clip5"><rect x="1152" y="92" width="1136" height="1106"/></clipPath><clipPath id="clip6"><rect x="1208" y="142" width="1018" height="623"/></clipPath><clipPath id="clip7"><rect x="1152" y="92" width="1136" height="1106"/></clipPath><clipPath id="clip8"><rect x="1208" y="142" width="1018" height="623"/></clipPath><clipPath id="clip9"><rect x="1152" y="92" width="1136" height="1106"/></clipPath><clipPath id="clip10"><rect x="1152" y="92" width="1136" height="1106"/></clipPath><clipPath id="clip11"><rect x="1152" y="92" width="1136" height="1106"/></clipPath><clipPath id="clip12"><rect x="1152" y="92" width="1136" height="1106"/></clipPath><clipPath id="clip13"><rect x="1152" y="92" width="1136" height="1106"/></clipPath><clipPath id="clip14"><rect x="1152" y="92" width="1136" height="1106"/></clipPath><clipPath id="clip15"><rect x="1152" y="92" width="1136" height="1106"/></clipPath><clipPath id="clip16"><rect x="1152" y="92" width="1136" height="1106"/></clipPath><clipPath id="clip17"><rect x="1152" y="92" width="1136" height="1106"/></clipPath><clipPath id="clip18"><rect x="1152" y="92" width="1136" height="1106"/></clipPath><clipPath id="clip19"><rect x="1152" y="92" width="1136" height="1106"/></clipPath><clipPath id="clip20"><rect x="1152" y="92" width="1136" height="1106"/></clipPath><clipPath id="clip21"><rect x="1152" y="92" width="1136" height="1106"/></clipPath><clipPath id="clip22"><rect x="1152" y="92" width="1136" height="1106"/></clipPath><clipPath id="clip23"><rect x="1152" y="92" width="1136" height="1106"/></clipPath><clipPath id="clip24"><rect x="1152" y="92" width="1136" height="1106"/></clipPath><clipPath id="clip25"><rect x="1152" y="92" width="1136" height="1106"/></clipPath><clipPath id="clip26"><rect x="1152" y="92" width="1136" height="1106"/></clipPath><clipPath id="clip27"><rect x="1152" y="92" width="1136" height="1106"/></clipPath><clipPath id="clip28"><rect x="1152" y="92" width="1136" height="1106"/></clipPath></defs><g clip-path="url(#clip0)" transform="translate(-1151 -91)"><rect x="1152" y="92.0001" width="1136" height="1106" fill="#FFFFFF"/><g clip-path="url(#clip1)"><path d="M1208.5 761.5 2223.5 761.5" stroke="#BFBFBF" stroke-width="3.4375" stroke-linejoin="round" stroke-miterlimit="10" fill="none" fill-rule="evenodd"/></g><g clip-path="url(#clip2)"><path d="M1732.56 211.5 1640.5 211.5 1824.5 211.5" stroke="#385723" stroke-width="6.875" stroke-linecap="round" stroke-linejoin="round" stroke-miterlimit="10" fill="none"/></g><g clip-path="url(#clip3)"><path d="M1743.62 211.595C1743.62 217.67 1738.69 222.595 1732.62 222.595 1726.54 222.595 1721.62 217.67 1721.62 211.595 1721.62 205.52 1726.54 200.596 1732.62 200.596 1738.69 200.596 1743.62 205.52 1743.62 211.595Z" stroke="#385723" stroke-width="3.4375" stroke-linejoin="round" stroke-miterlimit="10" fill="#385723"/></g><g clip-path="url(#clip4)"><path d="M1808.56 348.5 1678.5 348.5 1938.5 348.5" stroke="#548235" stroke-width="6.875" stroke-linecap="round" stroke-linejoin="round" stroke-miterlimit="10" fill="none"/></g><g clip-path="url(#clip5)"><path d="M1819.62 348.595C1819.62 354.67 1814.69 359.595 1808.62 359.595 1802.54 359.595 1797.62 354.67 1797.62 348.595 1797.62 342.52 1802.54 337.596 1808.62 337.596 1814.69 337.596 1819.62 342.52 1819.62 348.595Z" stroke="#548235" stroke-width="3.4375" stroke-linejoin="round" stroke-miterlimit="10" fill="#548235"/></g><g clip-path="url(#clip6)"><path d="M1752.56 486.5 1699.5 486.5 1805.5 486.5" stroke="#A9D18E" stroke-width="6.875" stroke-linecap="round" stroke-linejoin="round" stroke-miterlimit="10" fill="none"/></g><g clip-path="url(#clip7)"><path d="M1763.62 486.595C1763.62 492.67 1758.69 497.595 1752.62 497.595 1746.54 497.595 1741.62 492.67 1741.62 486.595 1741.62 480.52 1746.54 475.596 1752.62 475.596 1758.69 475.596 1763.62 480.52 1763.62 486.595Z" stroke="#A9D18E" stroke-width="3.4375" stroke-linejoin="round" stroke-miterlimit="10" fill="#A9D18E"/></g><g clip-path="url(#clip8)"><path d="M1865.56 624.5 1750.5 624.5 1981.5 624.5" stroke="#C5E0B4" stroke-width="6.875" stroke-linecap="round" stroke-linejoin="round" stroke-miterlimit="10" fill="none"/></g><g clip-path="url(#clip9)"><path d="M1876.62 624.595C1876.62 630.67 1871.69 635.595 1865.62 635.595 1859.54 635.595 1854.62 630.67 1854.62 624.595 1854.62 618.52 1859.54 613.596 1865.62 613.596 1871.69 613.596 1876.62 618.52 1876.62 624.595Z" stroke="#C5E0B4" stroke-width="3.4375" stroke-linejoin="round" stroke-miterlimit="10" fill="#C5E0B4"/></g><g clip-path="url(#clip10)"><text fill="#595959" font-family="Calibri,Calibri_MSFontService,sans-serif" font-weight="400" font-size="41" transform="matrix(1 0 0 1 1182.3 827)">0.0</text></g><g clip-path="url(#clip11)"><text fill="#595959" font-family="Calibri,Calibri_MSFontService,sans-serif" font-weight="400" font-size="41" transform="matrix(1 0 0 1 1351.4 827)">0.5</text></g><g clip-path="url(#clip12)"><text fill="#595959" font-family="Calibri,Calibri_MSFontService,sans-serif" font-weight="400" font-size="41" transform="matrix(1 0 0 1 1520.5 827)">1.0</text></g><g clip-path="url(#clip13)"><text fill="#595959" font-family="Calibri,Calibri_MSFontService,sans-serif" font-weight="400" font-size="41" transform="matrix(1 0 0 1 1689.6 827)">1.5</text></g><g clip-path="url(#clip14)"><text fill="#595959" font-family="Calibri,Calibri_MSFontService,sans-serif" font-weight="400" font-size="41" transform="matrix(1 0 0 1 1858.71 827)">2.0</text></g><g clip-path="url(#clip15)"><text fill="#595959" font-family="Calibri,Calibri_MSFontService,sans-serif" font-weight="400" font-size="41" transform="matrix(1 0 0 1 2027.81 827)">2.5</text></g><g clip-path="url(#clip16)"><text fill="#595959" font-family="Calibri,Calibri_MSFontService,sans-serif" font-weight="400" font-size="41" transform="matrix(1 0 0 1 2196.91 827)">3.0</text></g><g clip-path="url(#clip17)"><path d="M1378.5 900.5 1466.5 900.5" stroke="#385723" stroke-width="6.875" stroke-linecap="round" stroke-linejoin="round" stroke-miterlimit="10" fill="none" fill-rule="evenodd"/></g><g clip-path="url(#clip18)"><path d="M1433 900C1433 906.075 1428.07 911 1422 911 1415.92 911 1411 906.075 1411 900 1411 893.925 1415.92 889 1422 889 1428.07 889 1433 893.925 1433 900Z" stroke="#385723" stroke-width="3.4375" stroke-linejoin="round" stroke-miterlimit="10" fill="#385723"/></g><g clip-path="url(#clip19)"><text fill="#595959" font-family="Calibri,Calibri_MSFontService,sans-serif" font-weight="400" font-size="41" transform="matrix(1 0 0 1 1476.1 912)">4th Quartile (Highest Overall Score)</text></g><g clip-path="url(#clip20)"><path d="M1378.5 977.5 1466.5 977.5" stroke="#548235" stroke-width="6.875" stroke-linecap="round" stroke-linejoin="round" stroke-miterlimit="10" fill="none" fill-rule="evenodd"/></g><g clip-path="url(#clip21)"><path d="M1433 977C1433 983.075 1428.07 988 1422 988 1415.92 988 1411 983.075 1411 977 1411 970.925 1415.92 966 1422 966 1428.07 966 1433 970.925 1433 977Z" stroke="#548235" stroke-width="3.4375" stroke-linejoin="round" stroke-miterlimit="10" fill="#548235"/></g><g clip-path="url(#clip22)"><text fill="#595959" font-family="Calibri,Calibri_MSFontService,sans-serif" font-weight="400" font-size="41" transform="matrix(1 0 0 1 1476.1 989)">3rd Quartile</text></g><g clip-path="url(#clip23)"><path d="M1378.5 1054.5 1466.5 1054.5" stroke="#A9D18E" stroke-width="6.875" stroke-linecap="round" stroke-linejoin="round" stroke-miterlimit="10" fill="none" fill-rule="evenodd"/></g><g clip-path="url(#clip24)"><path d="M1433 1054C1433 1060.07 1428.07 1065 1422 1065 1415.92 1065 1411 1060.07 1411 1054 1411 1047.92 1415.92 1043 1422 1043 1428.07 1043 1433 1047.92 1433 1054Z" stroke="#A9D18E" stroke-width="3.4375" stroke-linejoin="round" stroke-miterlimit="10" fill="#A9D18E"/></g><g clip-path="url(#clip25)"><text fill="#595959" font-family="Calibri,Calibri_MSFontService,sans-serif" font-weight="400" font-size="41" transform="matrix(1 0 0 1 1476.1 1067)">2nd Quartile</text></g><g clip-path="url(#clip26)"><path d="M1378.5 1132.5 1466.5 1132.5" stroke="#C5E0B4" stroke-width="6.875" stroke-linecap="round" stroke-linejoin="round" stroke-miterlimit="10" fill="none" fill-rule="evenodd"/></g><g clip-path="url(#clip27)"><path d="M1433 1132C1433 1138.07 1428.07 1143 1422 1143 1415.92 1143 1411 1138.07 1411 1132 1411 1125.92 1415.92 1121 1422 1121 1428.07 1121 1433 1125.92 1433 1132Z" stroke="#C5E0B4" stroke-width="3.4375" stroke-linejoin="round" stroke-miterlimit="10" fill="#C5E0B4"/></g><g clip-path="url(#clip28)"><text fill="#595959" font-family="Calibri,Calibri_MSFontService,sans-serif" font-weight="400" font-size="41" transform="matrix(1 0 0 1 1476.1 1144)">1st Quartile (Lowest Overall Score)</text></g><rect x="1152.5" y="92.5" width="1136" height="1106" stroke="#D9D9D9" stroke-width="3.4375" stroke-linejoin="round" stroke-miterlimit="10" fill="none"/></g></svg>