<svg width="1140" height="887" xmlns="http://www.w3.org/2000/svg" xmlns:xlink="http://www.w3.org/1999/xlink" overflow="hidden"><defs><clipPath id="clip0"><rect x="1284" y="193" width="1140" height="887"/></clipPath><clipPath id="clip1"><rect x="1285" y="193" width="1136" height="885"/></clipPath><clipPath id="clip2"><rect x="1341" y="213" width="1018" height="454"/></clipPath><clipPath id="clip3"><rect x="1285" y="193" width="1136" height="885"/></clipPath><clipPath id="clip4"><rect x="1341" y="213" width="1018" height="454"/></clipPath><clipPath id="clip5"><rect x="1285" y="193" width="1136" height="885"/></clipPath><clipPath id="clip6"><rect x="1341" y="213" width="1018" height="454"/></clipPath><clipPath id="clip7"><rect x="1285" y="193" width="1136" height="885"/></clipPath><clipPath id="clip8"><rect x="1341" y="213" width="1018" height="454"/></clipPath><clipPath id="clip9"><rect x="1285" y="193" width="1136" height="885"/></clipPath><clipPath id="clip10"><rect x="1341" y="213" width="1018" height="454"/></clipPath><clipPath id="clip11"><rect x="1285" y="193" width="1136" height="885"/></clipPath><clipPath id="clip12"><rect x="1341" y="213" width="1018" height="454"/></clipPath><clipPath id="clip13"><rect x="1285" y="193" width="1136" height="885"/></clipPath><clipPath id="clip14"><rect x="1285" y="193" width="1136" height="885"/></clipPath><clipPath id="clip15"><rect x="1285" y="193" width="1136" height="885"/></clipPath><clipPath id="clip16"><rect x="1285" y="193" width="1136" height="885"/></clipPath><clipPath id="clip17"><rect x="1285" y="193" width="1136" height="885"/></clipPath><clipPath id="clip18"><rect x="1285" y="193" width="1136" height="885"/></clipPath><clipPath id="clip19"><rect x="1285" y="193" width="1136" height="885"/></clipPath><clipPath id="clip20"><rect x="1285" y="193" width="1136" height="885"/></clipPath><clipPath id="clip21"><rect x="1285" y="193" width="1136" height="885"/></clipPath><clipPath id="clip22"><rect x="1285" y="193" width="1136" height="885"/></clipPath><clipPath id="clip23"><rect x="1285" y="193" width="1136" height="885"/></clipPath><clipPath id="clip24"><rect x="1285" y="193" width="1136" height="885"/></clipPath><clipPath id="clip25"><rect x="1285" y="193" width="1136" height="885"/></clipPath><clipPath id="clip26"><rect x="1285" y="193" width="1136" height="885"/></clipPath><clipPath id="clip27"><rect x="1285" y="193" width="1136" height="885"/></clipPath><clipPath id="clip28"><rect x="1285" y="193" width="1136" height="885"/></clipPath><clipPath id="clip29"><rect x="1285" y="193" width="1136" height="885"/></clipPath><clipPath id="clip30"><rect x="1285" y="193" width="1136" height="885"/></clipPath><clipPath id="clip31"><rect x="1285" y="193" width="1136" height="885"/></clipPath><clipPath id="clip32"><rect x="1285" y="193" width="1136" height="885"/></clipPath><clipPath id="clip33"><rect x="1285" y="193" width="1136" height="885"/></clipPath><clipPath id="clip34"><rect x="1285" y="193" width="1136" height="885"/></clipPath><clipPath id="clip35"><rect x="1285" y="193" width="1136" height="885"/></clipPath><clipPath id="clip36"><rect x="1285" y="193" width="1136" height="885"/></clipPath><clipPath id="clip37"><rect x="1285" y="193" width="1136" height="885"/></clipPath><clipPath id="clip38"><rect x="1285" y="193" width="1136" height="885"/></clipPath><clipPath id="clip39"><rect x="1285" y="193" width="1136" height="885"/></clipPath><clipPath id="clip40"><rect x="1285" y="193" width="1136" height="885"/></clipPath><clipPath id="clip41"><rect x="1285" y="193" width="1136" height="885"/></clipPath><clipPath id="clip42"><rect x="1285" y="193" width="1137" height="886"/></clipPath><clipPath id="clip43"><rect x="740" y="818" width="2288" height="63"/></clipPath><clipPath id="clip44"><rect x="1285" y="193" width="1137" height="886"/></clipPath><clipPath id="clip45"><rect x="740" y="818" width="2288" height="63"/></clipPath><clipPath id="clip46"><rect x="1285" y="193" width="1137" height="886"/></clipPath><clipPath id="clip47"><rect x="740" y="818" width="2288" height="63"/></clipPath><clipPath id="clip48"><rect x="1285" y="193" width="1137" height="886"/></clipPath></defs><g clip-path="url(#clip0)" transform="translate(-1284 -193)"><rect x="1285" y="194" width="1137" height="884" fill="#FFFFFF"/><g clip-path="url(#clip1)"><path d="M1341.5 663.5 2356.5 663.5" stroke="#BFBFBF" stroke-width="3.4375" stroke-linejoin="round" stroke-miterlimit="10" fill="none" fill-rule="evenodd"/></g><g clip-path="url(#clip2)"><path d="M1827.56 277.5 1764.5 277.5 1891.5 277.5" stroke="#385723" stroke-width="6.875" stroke-linecap="round" stroke-linejoin="round" stroke-miterlimit="10" fill="none"/></g><g clip-path="url(#clip3)"><path d="M1838.65 277.134C1838.65 283.209 1833.73 288.134 1827.65 288.134 1821.58 288.134 1816.65 283.209 1816.65 277.134 1816.65 271.059 1821.58 266.135 1827.65 266.135 1833.73 266.135 1838.65 271.059 1838.65 277.134Z" stroke="#385723" stroke-width="3.4375" stroke-linejoin="round" stroke-miterlimit="10" fill="#385723"/></g><g clip-path="url(#clip4)"><path d="M1936.56 342.5 1808.5 342.5 2065.5 342.5" stroke="#548235" stroke-width="6.875" stroke-linecap="round" stroke-linejoin="round" stroke-miterlimit="10" fill="none"/></g><g clip-path="url(#clip5)"><path d="M1947.65 342.134C1947.65 348.209 1942.73 353.134 1936.65 353.134 1930.58 353.134 1925.65 348.209 1925.65 342.134 1925.65 336.059 1930.58 331.135 1936.65 331.135 1942.73 331.135 1947.65 336.059 1947.65 342.134Z" stroke="#548235" stroke-width="3.4375" stroke-linejoin="round" stroke-miterlimit="10" fill="#548235"/></g><g clip-path="url(#clip6)"><path d="M1898.56 406.5 1845.5 406.5 1951.5 406.5" stroke="#A9D18E" stroke-width="6.875" stroke-linecap="round" stroke-linejoin="round" stroke-miterlimit="10" fill="none"/></g><g clip-path="url(#clip7)"><path d="M1909.65 406.135C1909.65 412.21 1904.73 417.134 1898.65 417.134 1892.58 417.134 1887.65 412.21 1887.65 406.135 1887.65 400.06 1892.58 395.135 1898.65 395.135 1904.73 395.135 1909.65 400.06 1909.65 406.135Z" stroke="#A9D18E" stroke-width="3.4375" stroke-linejoin="round" stroke-miterlimit="10" fill="#A9D18E"/></g><g clip-path="url(#clip8)"><path d="M2001.57 470.5 1856.5 470.5 2145.5 470.5" stroke="#C5E0B4" stroke-width="6.875" stroke-linecap="round" stroke-linejoin="round" stroke-miterlimit="10" fill="none"/></g><g clip-path="url(#clip9)"><path d="M2012.65 470.135C2012.65 476.209 2007.73 481.134 2001.65 481.134 1995.58 481.134 1990.65 476.209 1990.65 470.135 1990.65 464.06 1995.58 459.135 2001.65 459.135 2007.73 459.135 2012.65 464.06 2012.65 470.135Z" stroke="#C5E0B4" stroke-width="3.4375" stroke-linejoin="round" stroke-miterlimit="10" fill="#C5E0B4"/></g><g clip-path="url(#clip10)"><path d="M1996.57 535.5 1896.5 535.5 2097.5 535.5" stroke="#D9D9D9" stroke-width="6.875" stroke-linecap="round" stroke-linejoin="round" stroke-miterlimit="10" fill="none"/></g><g clip-path="url(#clip11)"><path d="M2007.65 535.134C2007.65 541.209 2002.73 546.134 1996.65 546.134 1990.58 546.134 1985.65 541.209 1985.65 535.134 1985.65 529.06 1990.58 524.135 1996.65 524.135 2002.73 524.135 2007.65 529.06 2007.65 535.134Z" stroke="#0D0D0D" stroke-width="3.4375" stroke-linejoin="round" stroke-miterlimit="10" fill="#FFFFFF"/></g><g clip-path="url(#clip12)"><path d="M2041.57 599.5 1980.5 599.5 2101.5 599.5" stroke="#7F7F7F" stroke-width="6.875" stroke-linecap="round" stroke-linejoin="round" stroke-miterlimit="10" fill="none"/></g><g clip-path="url(#clip13)"><path d="M2052.65 599.134C2052.65 605.209 2047.73 610.134 2041.65 610.134 2035.58 610.134 2030.65 605.209 2030.65 599.134 2030.65 593.06 2035.58 588.135 2041.65 588.135 2047.73 588.135 2052.65 593.06 2052.65 599.134Z" stroke="#7F7F7F" stroke-width="3.4375" stroke-linejoin="round" stroke-miterlimit="10" fill="#7F7F7F"/></g><g clip-path="url(#clip14)"><text fill="#595959" font-family="Calibri,Calibri_MSFontService,sans-serif" font-weight="400" font-size="41" transform="matrix(1 0 0 1 1315.36 729)">0.0</text></g><g clip-path="url(#clip15)"><text fill="#595959" font-family="Calibri,Calibri_MSFontService,sans-serif" font-weight="400" font-size="41" transform="matrix(1 0 0 1 1484.53 729)">0.5</text></g><g clip-path="url(#clip16)"><text fill="#595959" font-family="Calibri,Calibri_MSFontService,sans-serif" font-weight="400" font-size="41" transform="matrix(1 0 0 1 1653.7 729)">1.0</text></g><g clip-path="url(#clip17)"><text fill="#595959" font-family="Calibri,Calibri_MSFontService,sans-serif" font-weight="400" font-size="41" transform="matrix(1 0 0 1 1822.87 729)">1.5</text></g><g clip-path="url(#clip18)"><text fill="#595959" font-family="Calibri,Calibri_MSFontService,sans-serif" font-weight="400" font-size="41" transform="matrix(1 0 0 1 1992.04 729)">2.0</text></g><g clip-path="url(#clip19)"><text fill="#595959" font-family="Calibri,Calibri_MSFontService,sans-serif" font-weight="400" font-size="41" transform="matrix(1 0 0 1 2161.21 729)">2.5</text></g><g clip-path="url(#clip20)"><text fill="#595959" font-family="Calibri,Calibri_MSFontService,sans-serif" font-weight="400" font-size="41" transform="matrix(1 0 0 1 2330.39 729)">3.0</text></g><g clip-path="url(#clip21)"><text fill="#767171" font-family="Calibri,Calibri_MSFontService,sans-serif" font-weight="400" font-size="48" transform="matrix(1 0 0 1 1422.43 788)">School</text></g><g clip-path="url(#clip22)"><text fill="#767171" font-family="Calibri,Calibri_MSFontService,sans-serif" font-weight="400" font-size="48" transform="matrix(1 0 0 1 1551.95 788)">-</text></g><g clip-path="url(#clip23)"><text fill="#767171" font-family="Calibri,Calibri_MSFontService,sans-serif" font-weight="400" font-size="48" transform="matrix(1 0 0 1 1566.69 788)">Level Teacher Mobility/Attrition Rate </text></g><g clip-path="url(#clip24)"><path d="M1508.5 923.5 1596.5 923.501" stroke="#385723" stroke-width="6.875" stroke-linecap="round" stroke-linejoin="round" stroke-miterlimit="10" fill="none" fill-rule="evenodd"/></g><g clip-path="url(#clip25)"><path d="M1563 923C1563 929.075 1558.07 934 1552 934 1545.92 934 1541 929.075 1541 923 1541 916.925 1545.92 912 1552 912 1558.07 912 1563 916.925 1563 923Z" stroke="#385723" stroke-width="3.4375" stroke-linejoin="round" stroke-miterlimit="10" fill="#385723"/></g><g clip-path="url(#clip26)"><text fill="#595959" font-family="Calibri,Calibri_MSFontService,sans-serif" font-weight="400" font-size="41" transform="matrix(1 0 0 1 1605.61 935)">  88.2 - 98.9</text></g><g clip-path="url(#clip27)"><path d="M1920.5 923.5 2008.5 923.501" stroke="#548235" stroke-width="6.875" stroke-linecap="round" stroke-linejoin="round" stroke-miterlimit="10" fill="none" fill-rule="evenodd"/></g><g clip-path="url(#clip28)"><path d="M1975 923C1975 929.075 1970.08 934 1964 934 1957.93 934 1953 929.075 1953 923 1953 916.925 1957.93 912 1964 912 1970.08 912 1975 916.925 1975 923Z" stroke="#548235" stroke-width="3.4375" stroke-linejoin="round" stroke-miterlimit="10" fill="#548235"/></g><g clip-path="url(#clip29)"><text fill="#595959" font-family="Calibri,Calibri_MSFontService,sans-serif" font-weight="400" font-size="41" transform="matrix(1 0 0 1 2017.99 935)">  80.4 - 88.1</text></g><g clip-path="url(#clip30)"><path d="M1508.5 980.5 1596.5 980.5" stroke="#A9D18E" stroke-width="6.875" stroke-linecap="round" stroke-linejoin="round" stroke-miterlimit="10" fill="none" fill-rule="evenodd"/></g><g clip-path="url(#clip31)"><path d="M1563 979.999C1563 986.075 1558.07 990.999 1552 990.999 1545.92 990.999 1541 986.075 1541 979.999 1541 973.924 1545.92 969 1552 969 1558.07 969 1563 973.924 1563 979.999Z" stroke="#A9D18E" stroke-width="3.4375" stroke-linejoin="round" stroke-miterlimit="10" fill="#A9D18E"/></g><g clip-path="url(#clip32)"><text fill="#595959" font-family="Calibri,Calibri_MSFontService,sans-serif" font-weight="400" font-size="41" transform="matrix(1 0 0 1 1605.61 992)">  71.7 - 80.3</text></g><g clip-path="url(#clip33)"><path d="M1920.5 980.5 2008.5 980.5" stroke="#C5E0B4" stroke-width="6.875" stroke-linecap="round" stroke-linejoin="round" stroke-miterlimit="10" fill="none" fill-rule="evenodd"/></g><g clip-path="url(#clip34)"><path d="M1975 979.999C1975 986.075 1970.08 990.999 1964 990.999 1957.93 990.999 1953 986.075 1953 979.999 1953 973.924 1957.93 969 1964 969 1970.08 969 1975 973.924 1975 979.999Z" stroke="#C5E0B4" stroke-width="3.4375" stroke-linejoin="round" stroke-miterlimit="10" fill="#C5E0B4"/></g><g clip-path="url(#clip35)"><text fill="#595959" font-family="Calibri,Calibri_MSFontService,sans-serif" font-weight="400" font-size="41" transform="matrix(1 0 0 1 2017.99 992)">  59.6 - 71.6</text></g><g clip-path="url(#clip36)"><path d="M1508.5 1036.5 1596.5 1036.5" stroke="#D9D9D9" stroke-width="6.875" stroke-linecap="round" stroke-linejoin="round" stroke-miterlimit="10" fill="none" fill-rule="evenodd"/></g><g clip-path="url(#clip37)"><path d="M1563 1036C1563 1042.07 1558.07 1047 1552 1047 1545.92 1047 1541 1042.07 1541 1036 1541 1029.92 1545.92 1025 1552 1025 1558.07 1025 1563 1029.92 1563 1036Z" stroke="#0D0D0D" stroke-width="3.4375" stroke-linejoin="round" stroke-miterlimit="10" fill="#FFFFFF"/></g><g clip-path="url(#clip38)"><text fill="#595959" font-family="Calibri,Calibri_MSFontService,sans-serif" font-weight="400" font-size="41" transform="matrix(1 0 0 1 1624.26 1048)">≤59.5</text></g><g clip-path="url(#clip39)"><path d="M1920.5 1036.5 2008.5 1036.5" stroke="#7F7F7F" stroke-width="6.875" stroke-linecap="round" stroke-linejoin="round" stroke-miterlimit="10" fill="none" fill-rule="evenodd"/></g><g clip-path="url(#clip40)"><path d="M1975 1036C1975 1042.07 1970.08 1047 1964 1047 1957.93 1047 1953 1042.07 1953 1036 1953 1029.92 1957.93 1025 1964 1025 1970.08 1025 1975 1029.92 1975 1036Z" stroke="#7F7F7F" stroke-width="3.4375" stroke-linejoin="round" stroke-miterlimit="10" fill="#7F7F7F"/></g><g clip-path="url(#clip41)"><text fill="#595959" font-family="Calibri,Calibri_MSFontService,sans-serif" font-weight="400" font-size="41" transform="matrix(1 0 0 1 2017.99 1048)">Missing</text></g><rect x="1285.5" y="194.5" width="1137" height="884" stroke="#D9D9D9" stroke-width="3.4375" stroke-linejoin="round" stroke-miterlimit="10" fill="none"/><g clip-path="url(#clip42)"><g clip-path="url(#clip43)"><text fill="#767171" font-family="Calibri,Calibri_MSFontService,sans-serif" font-weight="400" font-size="46" transform="matrix(1 0 0 1 1720.69 881)">Overall</text></g></g><g clip-path="url(#clip44)"><g clip-path="url(#clip45)"><text fill="#767171" font-family="Calibri,Calibri_MSFontService,sans-serif" font-weight="400" font-size="48" transform="matrix(1 0 0 1 1864.37 881)">Score</text></g></g><g clip-path="url(#clip46)"><g clip-path="url(#clip47)"><text fill="#767171" font-family="Calibri,Calibri_MSFontService,sans-serif" font-weight="400" font-size="48" transform="matrix(1 0 0 1 1983.81 881)">(%)</text></g></g><g clip-path="url(#clip48)"><path d="M0 0 806.091 1.41578" stroke="#7F7F7F" stroke-width="2.29167" stroke-miterlimit="8" fill="none" fill-rule="evenodd" transform="matrix(1 0 0 -1 1462 825.416)"/></g></g></svg>